<svg width="32" height="38" viewBox="0 0 32 38" fill="none" xmlns="http://www.w3.org/2000/svg">
<path d="M27.137 26.6635L16 37.5353L4.86301 26.6635C2.66035 24.5133 1.16033 21.7737 0.552625 18.7912C-0.0550768 15.8088 0.256837 12.7174 1.44892 9.90799C2.64101 7.09859 4.65973 4.69735 7.24979 3.00794C9.83986 1.31852 12.885 0.416794 16 0.416794C19.1151 0.416794 22.1601 1.31852 24.7502 3.00794C27.3403 4.69735 29.359 7.09859 30.5511 9.90799C31.7432 12.7174 32.0551 15.8088 31.4474 18.7912C30.8397 21.7737 29.3397 24.5133 27.137 26.6635ZM16 19.2083C16.9283 19.2083 17.8185 18.8484 18.4749 18.2076C19.1313 17.5669 19.5 16.6978 19.5 15.7917C19.5 14.8855 19.1313 14.0165 18.4749 13.3757C17.8185 12.735 16.9283 12.375 16 12.375C15.0717 12.375 14.1815 12.735 13.5251 13.3757C12.8688 14.0165 12.5 14.8855 12.5 15.7917C12.5 16.6978 12.8688 17.5669 13.5251 18.2076C14.1815 18.8484 15.0717 19.2083 16 19.2083Z" fill="#181818"/>
</svg>
