ㅔㅑ<svg width="29" height="34" viewBox="0 0 29 34" fill="none" xmlns="http://www.w3.org/2000/svg">
<path d="M24.3112 23.7695L14.5 33.5807L4.68884 23.7695C2.7484 21.8291 1.42695 19.3568 0.891598 16.6653C0.356242 13.9738 0.631023 11.184 1.68119 8.64872C2.73136 6.11341 4.50976 3.94644 6.79149 2.42184C9.07321 0.897246 11.7558 0.0834961 14.5 0.0834961C17.2442 0.0834961 19.9268 0.897246 22.2085 2.42184C24.4903 3.94644 26.2686 6.11341 27.3188 8.64872C28.369 11.184 28.6438 13.9738 28.1084 16.6653C27.5731 19.3568 26.2516 21.8291 24.3112 23.7695ZM14.5 17.0417C15.3178 17.0417 16.102 16.7169 16.6803 16.1386C17.2585 15.5604 17.5833 14.7761 17.5833 13.9584C17.5833 13.1406 17.2585 12.3564 16.6803 11.7781C16.102 11.1999 15.3178 10.875 14.5 10.875C13.6823 10.875 12.898 11.1999 12.3198 11.7781C11.7415 12.3564 11.4167 13.1406 11.4167 13.9584C11.4167 14.7761 11.7415 15.5604 12.3198 16.1386C12.898 16.7169 13.6823 17.0417 14.5 17.0417Z" fill="#FC565A"/>
</svg>
