<svg width="20" height="20" viewBox="0 0 20 20" fill="none" xmlns="http://www.w3.org/2000/svg">
<path d="M8.196 12.9945L2.30005 18.8915C2.2032 18.9883 2.08822 19.0652 1.96168 19.1176C1.83513 19.17 1.6995 19.197 1.56254 19.197C1.42557 19.197 1.28994 19.17 1.16339 19.1176C1.03685 19.0652 0.921872 18.9883 0.82502 18.8915C0.728168 18.7946 0.651341 18.6797 0.598925 18.5531C0.546509 18.4266 0.519531 18.2909 0.519531 18.154C0.519531 18.017 0.546509 17.8814 0.598925 17.7548C0.651341 17.6283 0.728168 17.5133 0.82502 17.4165L6.72201 11.5205L2.30005 7.09645C3.13134 6.26444 4.15162 5.64595 5.2738 5.2938C6.39597 4.94165 7.5867 4.86628 8.74432 5.07415L12.619 1.2005C13.01 0.809655 13.5402 0.590088 14.093 0.590088C14.6458 0.590088 15.176 0.809655 15.567 1.2005L18.516 4.14848C18.7097 4.34209 18.8633 4.57196 18.9682 4.82496C19.073 5.07796 19.1269 5.34913 19.1269 5.62299C19.1269 5.89684 19.073 6.16802 18.9682 6.42102C18.8633 6.67402 18.7097 6.90389 18.516 7.0975L14.6424 10.9711C14.8503 12.129 14.7748 13.32 14.4225 14.4424C14.0701 15.5647 13.4514 16.5852 12.619 17.4165L8.196 12.9945Z" fill="black"/>
</svg>
